<svg width="598" height="493" viewBox="0 0 598 493" fill="none" xmlns="http://www.w3.org/2000/svg">
<mask id="mask0_32_2391" style="mask-type:alpha" maskUnits="userSpaceOnUse" x="0" y="0" width="598" height="493">
<rect width="598" height="493" fill="#D9D9D9"/>
</mask>
<g mask="url(#mask0_32_2391)">
<path fill-rule="evenodd" clip-rule="evenodd" d="M548.789 395.982C548.789 566.448 437.094 649.079 299.311 649.079C161.528 649.079 49.833 566.448 49.833 395.982C49.833 332.9 65.129 266.629 91.3826 208.168C91.169 207.684 90.9918 207.175 90.8555 206.646L79.4929 162.522C78.1435 157.281 81.291 151.938 86.523 150.586C86.7357 150.532 86.9485 150.484 87.1612 150.444C87.3449 150.385 87.5315 150.331 87.7208 150.282L130.007 139.359C174.485 75.3498 233.964 31.7687 299.311 31.7687C343.799 31.7687 385.567 51.9678 421.734 85.0603L421.612 52.4618C421.592 47.0503 425.955 42.6468 431.359 42.6265C436.762 42.6062 441.158 46.9767 441.179 52.3882L441.319 89.88L466.985 89.8463C472.389 89.8393 476.76 94.2205 476.749 99.6321C476.738 105.044 472.349 109.436 466.946 109.443L445.436 109.472C459.857 126.083 473.117 144.778 484.986 164.975C488.276 170.573 491.458 176.285 494.529 182.101C499.897 192.265 492.319 204.17 480.838 204.17C474.998 204.17 469.659 200.912 466.812 195.805C426.437 123.372 366.377 70.9631 299.311 70.9631C177.738 70.9631 79.1834 243.183 79.1834 394.708C79.1834 546.233 177.738 619.684 299.311 619.684C420.884 619.684 519.439 546.233 519.439 394.708C519.439 371.423 517.111 347.649 512.731 324.087C512.467 322.665 511.1 321.753 509.655 321.753H460.738C452.633 321.753 446.063 315.172 446.063 307.055C446.063 298.937 452.633 292.357 460.738 292.357H505.565H519.439H520.607C529.639 292.357 537.541 298.541 539.382 307.398C545.51 336.882 548.789 366.774 548.789 395.982ZM114.436 163.619L100.884 167.12L104.53 181.276C107.715 175.275 111.019 169.385 114.436 163.619ZM225.935 174.774C225.935 182.891 219.365 189.472 211.26 189.472C203.155 189.472 196.585 182.891 196.585 174.774C196.585 166.657 203.155 160.076 211.26 160.076C219.365 160.076 225.935 166.657 225.935 174.774Z" fill="#360000"/>
</g>
</svg>
