<svg width="24" height="25" viewBox="0 0 24 25" fill="none" xmlns="http://www.w3.org/2000/svg">
<mask id="mask0_812_103" style="mask-type:luminance" maskUnits="userSpaceOnUse" x="0" y="0" width="24" height="25">
<path d="M0 0.0533295H24V24.0533H0V0.0533295Z" fill="white"/>
</mask>
<g mask="url(#mask0_812_103)">
<path d="M23.3277 10.9945L12.9469 0.524856C12.8048 0.381424 12.636 0.267644 12.4502 0.190016C12.2645 0.112388 12.0654 0.0724335 11.8643 0.0724335C11.6633 0.0724335 11.4642 0.112388 11.2784 0.190016C11.0926 0.267644 10.9239 0.381424 10.7817 0.524856L8.62615 2.69883L11.3601 5.45747C11.6815 5.34695 12.0271 5.32949 12.3579 5.40707C12.6886 5.48465 12.9912 5.65416 13.2313 5.89637C13.4725 6.14013 13.641 6.44739 13.7173 6.78309C13.7937 7.11878 13.775 7.46938 13.6633 7.79485L16.2986 10.4538C16.6212 10.3406 16.9689 10.3215 17.3017 10.3987C17.6346 10.4758 17.9392 10.646 18.1805 10.8898C18.3498 11.0603 18.4842 11.2628 18.5759 11.4857C18.6676 11.7086 18.7147 11.9476 18.7147 12.189C18.7147 12.4303 18.6676 12.6693 18.5759 12.8922C18.4842 13.1152 18.3498 13.3177 18.1805 13.4882C18.0114 13.659 17.8105 13.7946 17.5894 13.8871C17.3683 13.9795 17.1313 14.0271 16.8919 14.0271C16.6526 14.0271 16.4156 13.9795 16.1944 13.8871C15.9733 13.7946 15.7725 13.659 15.6034 13.4882C15.3493 13.2316 15.1762 12.9051 15.1057 12.5495C15.0351 12.194 15.0704 11.8253 15.2071 11.49L12.7492 9.01077V15.5345C12.9276 15.623 13.0905 15.7403 13.2313 15.8819C13.5729 16.2267 13.7649 16.6942 13.7649 17.1817C13.7649 17.6692 13.5729 18.1368 13.2313 18.4816C12.5191 19.1989 11.3653 19.1989 10.6552 18.4816C10.4858 18.311 10.3513 18.1084 10.2596 17.8853C10.1679 17.6623 10.1207 17.4232 10.1207 17.1817C10.1207 16.9402 10.1679 16.7012 10.2596 16.4781C10.3513 16.2551 10.4858 16.0524 10.6552 15.8819C10.8252 15.7093 11.0279 15.573 11.2513 15.4811V8.89657C11.0279 8.80467 10.8252 8.66838 10.6552 8.49582C10.3994 8.238 10.2254 7.90926 10.1554 7.55144C10.0853 7.19361 10.1224 6.82285 10.2618 6.48631L7.56649 3.76661L0.448668 10.9461C0.306428 11.0895 0.193593 11.2597 0.116608 11.4471C0.0396242 11.6345 0 11.8354 0 12.0382C0 12.241 0.0396242 12.4419 0.116608 12.6293C0.193593 12.8167 0.306428 12.9869 0.448668 13.1303L10.8295 23.601C10.9716 23.7444 11.1404 23.8582 11.3261 23.9359C11.5119 24.0135 11.711 24.0534 11.9121 24.0534C12.1131 24.0534 12.3122 24.0135 12.498 23.9359C12.6837 23.8582 12.8525 23.7444 12.9947 23.601L23.3277 13.1798C23.615 12.89 23.7764 12.497 23.7764 12.0871C23.7764 11.6773 23.615 11.2843 23.3277 10.9945Z" fill="#100F0D"/>
</g>
</svg>
