<svg width="33" height="32" viewBox="0 0 33 32" fill="none" xmlns="http://www.w3.org/2000/svg">
<path d="M25.3393 0.175781H7.42555C3.64258 0.175781 0.576172 3.24219 0.576172 7.02516V24.9389C0.576172 28.7219 3.64258 31.7883 7.42555 31.7883H25.3393C29.1223 31.7883 32.1887 28.7219 32.1887 24.9389V7.02516C32.1887 3.24219 29.1223 0.175781 25.3393 0.175781ZM25.3744 20.3386C22.9596 23.118 17.5598 26.5034 16.3311 27.0211C15.1028 27.5389 15.2841 26.6916 15.3343 26.4008C15.3634 26.2276 15.4987 25.4156 15.4987 25.4156C15.5373 25.1216 15.5774 24.6656 15.4614 24.3748C15.3325 24.0545 14.8222 23.888 14.4474 23.8072C8.91625 23.0762 4.82173 19.2093 4.82173 14.5921C4.82173 9.44176 9.98546 5.25169 16.3315 5.25169C22.6782 5.25169 27.8413 9.44176 27.8413 14.5921C27.8413 16.6533 27.0425 18.5093 25.3744 20.3386Z" fill="black"/>
<path d="M13.9926 12.1031H13.185C13.0614 12.1031 12.9609 12.2036 12.9609 12.3269V17.342C12.9609 17.4657 13.0614 17.5658 13.185 17.5658H13.9926C14.1162 17.5658 14.2167 17.4657 14.2167 17.342V12.3269C14.2167 12.2036 14.1162 12.1031 13.9926 12.1031Z" fill="black"/>
<path d="M19.5496 12.1031H18.7424C18.6184 12.1031 18.5183 12.2036 18.5183 12.3269V15.3065L16.2201 12.2029C16.2148 12.1948 16.2088 12.1874 16.2025 12.1801L16.2011 12.1787C16.1969 12.1738 16.1923 12.1692 16.1878 12.165L16.1836 12.1611C16.1797 12.1576 16.1758 12.1541 16.1716 12.1513C16.1699 12.1495 16.1678 12.1481 16.1656 12.1467C16.1618 12.1439 16.1579 12.1411 16.1541 12.1386C16.1519 12.1372 16.1498 12.1358 16.1474 12.1348C16.1435 12.1323 16.1393 12.1302 16.1354 12.1281C16.133 12.127 16.1309 12.1256 16.1284 12.1246C16.1242 12.1228 16.12 12.1207 16.1154 12.119C16.113 12.1179 16.1108 12.1172 16.108 12.1165C16.1038 12.1147 16.0993 12.1133 16.0947 12.1123C16.0922 12.1116 16.0898 12.1109 16.087 12.1102C16.0827 12.1091 16.0785 12.1081 16.074 12.1074C16.0708 12.1067 16.0676 12.1063 16.0645 12.106C16.0606 12.1053 16.0568 12.1049 16.0525 12.1046C16.0487 12.1042 16.0448 12.1039 16.041 12.1039C16.0381 12.1039 16.036 12.1035 16.0332 12.1035H15.2261C15.1024 12.1035 15.002 12.204 15.002 12.3272V17.3424C15.002 17.466 15.1024 17.5661 15.2261 17.5661H16.0332C16.1572 17.5661 16.2577 17.466 16.2577 17.3424V14.3638L18.5587 17.4717C18.5745 17.4941 18.5942 17.5124 18.6156 17.5268L18.6181 17.5286C18.6226 17.5314 18.6272 17.5345 18.6318 17.537C18.6339 17.5384 18.636 17.5394 18.6381 17.5405C18.6416 17.5423 18.6451 17.544 18.649 17.5458C18.6525 17.5472 18.656 17.5489 18.6599 17.5503C18.6623 17.5514 18.6641 17.5521 18.6665 17.5528C18.6718 17.5545 18.6767 17.5563 18.6816 17.5577L18.6848 17.5584C18.7031 17.5633 18.7224 17.5661 18.7421 17.5661H19.5492C19.6732 17.5661 19.7733 17.466 19.7733 17.3424V12.3269C19.774 12.2036 19.6736 12.1031 19.5496 12.1031Z" fill="black"/>
<path d="M12.046 16.3101H9.8524V12.3272C9.8524 12.2036 9.75194 12.1031 9.6283 12.1031H8.82078C8.69714 12.1031 8.59668 12.2036 8.59668 12.3272V17.3417C8.59668 17.4018 8.62057 17.4566 8.6592 17.4969C8.66026 17.498 8.66096 17.4994 8.66236 17.5005C8.66342 17.5015 8.66447 17.5026 8.66553 17.5036C8.70592 17.5423 8.76001 17.5661 8.82043 17.5661H12.046C12.1696 17.5661 12.2697 17.4657 12.2697 17.342V16.5345C12.2701 16.4105 12.1699 16.3101 12.046 16.3101Z" fill="black"/>
<path d="M24.0079 13.3589C24.1315 13.3589 24.2316 13.2584 24.2316 13.1348V12.3276C24.2316 12.2036 24.1315 12.1031 24.0079 12.1031H20.7827C20.7223 12.1031 20.6675 12.1274 20.6267 12.1664L20.6243 12.1688L20.6208 12.1727C20.5825 12.2127 20.5586 12.2672 20.5586 12.3272V17.3417C20.5586 17.4018 20.5825 17.4566 20.6211 17.4969L20.6243 17.5005L20.6274 17.5033C20.6675 17.5419 20.7219 17.5658 20.7823 17.5658H24.0079C24.1315 17.5658 24.2316 17.4653 24.2316 17.3417V16.5342C24.2316 16.4105 24.1315 16.3101 24.0079 16.3101H21.8143V15.4622H24.0079C24.1315 15.4622 24.2316 15.3617 24.2316 15.2381V14.4309C24.2316 14.3069 24.1315 14.2064 24.0079 14.2064H21.8143V13.3589H24.0079Z" fill="black"/>
</svg>
