<svg width="1408" height="312" viewBox="0 0 1408 312" fill="none" xmlns="http://www.w3.org/2000/svg">
<path fill-rule="evenodd" clip-rule="evenodd" d="M1032.46 6.2002L1148.06 308.6L1223.92 134.815L1292.06 307.8L1405.66 6.20013L1360.06 6.20014L1293.25 203.956L1215.66 6.20016L1173.26 6.20017L1202.85 81.3143L1153.32 208.615L1082.06 6.20019L1032.46 6.2002ZM1153.37 205.737L1082.77 5.20019L1031.01 5.2002L1148 311.24L1223.87 137.424L1292.08 310.582L1407.1 5.20013L1359.34 5.20014L1293.18 201.04L1216.34 5.20016L1171.79 5.20017L1201.77 81.3165L1153.37 205.737Z" fill="white"/>
<path fill-rule="evenodd" clip-rule="evenodd" d="M769.233 93.0138L769.238 93.0022C777.02 75.0232 787.756 59.0537 801.442 45.0992C815.131 31.1418 830.97 20.2689 848.952 12.4846C866.952 4.42561 886.291 0.399392 906.956 0.399388C927.357 0.399384 946.562 4.42639 964.56 12.4846C982.541 20.2681 998.51 31.1389 1012.46 45.0923C1026.42 59.0474 1037.29 75.019 1045.07 93.0022C1052.86 110.998 1056.76 130.067 1056.76 150.199C1056.76 170.862 1052.86 190.198 1045.07 208.197C1037.29 226.179 1026.42 242.017 1012.46 255.706C998.771 269.399 982.796 280.137 964.548 287.919L964.542 287.922C946.547 295.442 927.349 299.199 906.956 299.199C886.299 299.199 866.967 295.443 848.971 287.922C830.989 280.407 815.148 269.937 801.456 256.513L801.449 256.507C787.759 242.816 777.021 226.978 769.238 208.997L769.235 208.988L769.231 208.98C761.712 190.719 757.956 171.122 757.956 150.199C757.956 130.071 761.714 111.007 769.233 93.0138ZM1011.76 254.999C1025.62 241.399 1036.42 225.666 1044.16 207.799C1051.89 189.933 1055.76 170.733 1055.76 150.199C1055.76 130.199 1051.89 111.266 1044.16 93.3994C1036.42 75.5327 1025.62 59.666 1011.76 45.7994C997.889 31.9327 982.023 21.1327 964.156 13.3994C946.289 5.39938 927.223 1.39938 906.956 1.39939C886.423 1.39939 867.223 5.39939 849.356 13.3994C831.489 21.1327 815.756 31.9327 802.156 45.7994C788.556 59.6661 777.889 75.5327 770.156 93.3994C762.689 111.266 758.956 130.199 758.956 150.199C758.956 170.999 762.689 190.466 770.156 208.599C777.889 226.466 788.556 242.199 802.156 255.799C815.756 269.133 831.489 279.533 849.356 286.999C867.223 294.466 886.423 298.199 906.956 298.199C927.223 298.199 946.289 294.466 964.156 286.999C982.289 279.266 998.156 268.599 1011.76 254.999ZM1002.44 108.989L1002.43 108.977C997.144 96.0265 989.748 84.669 980.239 74.8967L980.23 74.8866C970.991 65.1201 960.036 57.4634 947.355 51.9155L947.348 51.9124C934.949 46.3725 921.623 43.5994 907.356 43.5994C892.551 43.5994 878.958 46.3746 866.564 51.9124C854.147 57.4606 843.185 65.1206 833.673 74.8968C824.166 84.6675 816.77 96.023 811.484 108.971C806.467 121.914 803.956 135.654 803.956 150.199C803.956 165.006 806.599 178.872 811.877 191.808C817.428 204.493 824.957 215.721 834.467 225.496C843.976 235.004 854.935 242.532 867.352 248.081C880.02 253.358 893.618 255.999 908.156 255.999C922.426 255.999 935.756 253.358 948.157 248.083C960.574 242.533 971.399 235.007 980.639 225.502L981.356 226.199C972.023 235.799 961.089 243.399 948.556 248.999C936.023 254.333 922.556 256.999 908.156 256.999C893.489 256.999 879.756 254.333 866.956 248.999C854.423 243.399 843.356 235.799 833.756 226.199C824.156 216.333 816.556 204.999 810.956 192.199C805.623 179.133 802.956 165.133 802.956 150.199C802.956 135.533 805.489 121.666 810.556 108.599C815.889 95.5327 823.356 84.0661 832.956 74.1994C842.556 64.3327 853.623 56.5994 866.156 50.9994C878.689 45.3994 892.423 42.5994 907.356 42.5994C921.756 42.5994 935.223 45.3994 947.756 50.9994C960.556 56.5994 971.623 64.3327 980.956 74.1994C990.556 84.066 998.023 95.5327 1003.36 108.599C1008.96 121.399 1011.76 135.266 1011.76 150.199C1011.76 165.133 1009.09 179.133 1003.76 192.199C998.423 204.999 990.956 216.333 981.356 226.199L980.639 225.502C990.151 215.726 997.548 204.499 1002.83 191.815C1008.11 178.877 1010.76 165.008 1010.76 150.199C1010.76 135.394 1007.98 121.665 1002.44 109L1002.44 108.989Z" fill="white"/>
<path fill-rule="evenodd" clip-rule="evenodd" d="M679.572 10.9996C666.772 6.73292 652.772 4.59959 637.572 4.5996L557.972 4.59961L557.972 295L600.772 295L600.772 191L643.172 191C645.163 191 647.12 190.969 649.042 190.909C649.431 190.896 649.819 190.883 650.205 190.868L717.172 295L766.772 295L695.059 180.564C695.357 180.411 695.654 180.257 695.949 180.102C705.767 174.946 713.908 168.578 720.372 161C728.105 151.933 733.705 141.8 737.172 130.6C740.638 119.4 742.372 108.066 742.372 96.5996C742.372 81.6662 739.705 68.5996 734.372 57.3996C729.305 45.9329 722.105 36.3329 712.772 28.5996C703.705 20.8662 692.638 14.9996 679.572 10.9996ZM679.876 10.047C666.965 5.74494 652.861 3.59959 637.572 3.5996L556.972 3.59961L556.972 296L601.772 296L601.772 192L643.172 192C645.38 192 647.547 191.962 649.672 191.888L716.626 296L768.579 296L696.482 180.952C706.369 175.749 714.591 169.318 721.133 161.649C728.953 152.48 734.62 142.227 738.127 130.895C741.623 119.602 743.372 108.169 743.372 96.5996C743.372 81.5524 740.685 68.3375 735.28 56.9812C730.154 45.3862 722.865 35.6657 713.415 27.834C704.234 20.0044 693.047 14.0803 679.876 10.047ZM669.572 145C662.372 148.466 653.305 150.2 642.372 150.2L600.772 150.2L600.772 45.7996L644.772 45.7996C654.905 45.7996 663.438 47.5329 670.372 50.9996C677.305 54.4663 682.772 58.8663 686.772 64.1996C691.038 69.5329 693.972 75.1329 695.572 80.9996C697.438 86.8662 698.372 92.4662 698.372 97.7996C698.372 103.4 697.438 109.266 695.572 115.4C693.972 121.266 691.038 126.866 686.772 132.2C682.772 137.266 677.038 141.533 669.572 145ZM601.772 46.7996L644.772 46.7996C654.796 46.7996 663.166 48.5147 669.925 51.894C676.742 55.3025 682.079 59.6092 685.972 64.7996L685.981 64.8121L685.991 64.8243C690.183 70.0641 693.047 75.5432 694.607 81.2627L694.612 81.2829L694.619 81.3028C696.459 87.0862 697.372 92.5836 697.372 97.7996C697.372 103.288 696.457 109.056 694.615 115.108L694.611 115.122L694.607 115.136C693.047 120.856 690.183 126.335 685.991 131.575L685.987 131.58C682.107 136.495 676.513 140.674 669.151 144.092L669.138 144.099C662.114 147.481 653.207 149.2 642.372 149.2L601.772 149.2L601.772 46.7996Z" fill="white"/>
<path fill-rule="evenodd" clip-rule="evenodd" d="M526.609 269.857L526.264 270.156C522.172 273.702 516.487 277.214 509.243 280.701C501.988 284.194 493.806 287.279 484.699 289.957C475.863 292.635 466.76 294.777 457.392 296.384C448.008 298.26 439.147 299.2 430.809 299.2C407.24 299.2 386.049 295.585 367.249 288.333C348.469 281.09 332.353 271.021 318.917 258.122C305.485 245.227 295.141 230.181 287.888 212.989L287.884 212.98L287.881 212.972C280.896 195.511 277.409 176.583 277.409 156.2C277.409 131.293 281.427 109.159 289.486 89.8158C297.533 70.5021 308.408 54.2505 322.116 41.0793C336.08 27.653 352.062 17.5795 370.056 10.8647C388.304 3.8881 407.357 0.400368 427.209 0.400364C444.618 0.400361 460.706 2.40881 475.468 6.4344C490.47 10.4529 503.361 15.685 514.124 22.1429L514.827 22.5647L500.156 63.6424L499.127 63.0766C493.863 60.181 487.256 57.4033 479.293 54.749L479.274 54.7426L479.255 54.7353C471.576 51.8227 463.631 49.5715 455.419 47.9821C447.202 46.3918 439.667 45.6004 432.809 45.6004C415.841 45.6004 400.629 48.119 387.158 53.1374L387.148 53.1413C373.941 57.8959 362.598 64.8891 353.106 74.1174C343.616 83.3444 336.225 94.555 330.941 107.765C325.926 120.964 323.409 135.904 323.409 152.6C323.409 167.68 326.054 181.547 331.331 194.213C336.612 206.622 344.002 217.441 353.501 226.678C362.995 235.643 374.342 242.64 387.556 247.662C400.764 252.416 415.444 254.8 431.609 254.8C440.875 254.8 450.008 253.874 459.008 252.021C467.755 250.22 475.217 247.675 481.409 244.401L481.409 193.2L425.409 193.2L425.409 150L526.609 150L526.609 269.857ZM482.409 192.2L482.409 245C476.009 248.467 468.276 251.134 459.209 253C450.143 254.867 440.943 255.8 431.609 255.8C415.343 255.8 400.543 253.4 387.209 248.6C373.876 243.534 362.409 236.467 352.809 227.4C343.209 218.067 335.743 207.134 330.409 194.6C325.076 181.8 322.409 167.8 322.409 152.6C322.409 135.8 324.943 120.734 330.009 107.4C335.343 94.067 342.809 82.7337 352.409 73.4004C362.009 64.067 373.476 57.0004 386.809 52.2004C400.409 47.1337 415.743 44.6004 432.809 44.6004C439.743 44.6004 447.343 45.4004 455.609 47.0004C463.876 48.6004 471.876 50.867 479.609 53.8003C487.17 56.3207 493.54 58.9602 498.719 61.7188C499.02 61.8789 499.317 62.0394 499.609 62.2004L513.609 23.0004C502.943 16.6003 490.143 11.4003 475.209 7.40035C460.543 3.40036 444.543 1.40036 427.209 1.40036C407.476 1.40037 388.543 4.86704 370.409 11.8004C352.543 18.467 336.676 28.467 322.809 41.8004C309.209 54.867 298.409 71.0004 290.409 90.2004C282.409 109.4 278.409 131.4 278.409 156.2C278.409 176.467 281.876 195.267 288.809 212.6C296.009 229.667 306.276 244.6 319.609 257.4C332.943 270.2 348.943 280.2 367.609 287.4C386.276 294.6 407.343 298.2 430.809 298.2C439.076 298.2 447.876 297.267 457.209 295.4C466.543 293.8 475.609 291.667 484.409 289C493.476 286.334 501.609 283.267 508.809 279.8C516.009 276.334 521.609 272.867 525.609 269.4L525.609 151L426.409 151L426.409 192.2L482.409 192.2Z" fill="white"/>
<path fill-rule="evenodd" clip-rule="evenodd" d="M212.19 4.59961L212.19 295L254.99 295L254.99 4.5996L212.19 4.59961ZM211.19 3.59961L255.99 3.5996L255.99 296L211.19 296L211.19 3.59961Z" fill="white"/>
<path fill-rule="evenodd" clip-rule="evenodd" d="M1.7998 4.59961L1.79986 295L189.8 295L189.8 253.8L44.5999 253.8L44.5998 4.5996L1.7998 4.59961ZM45.5999 252.8L45.5998 3.5996L0.799805 3.59961L0.799856 296L190.8 296L190.8 252.8L45.5999 252.8Z" fill="white"/>
</svg>
