<svg width="278" height="343" viewBox="0 0 278 343" fill="none" xmlns="http://www.w3.org/2000/svg">
<path fill-rule="evenodd" clip-rule="evenodd" d="M278 202.37C278 297.087 215.768 343 139 343C62.2324 343 0 297.087 0 202.37C0 167.319 8.52235 130.497 23.1499 98.014C23.0309 97.7448 22.9322 97.4623 22.8562 97.168L16.5254 72.651C15.7736 69.7394 17.5272 66.7704 20.4423 66.0194C20.5608 65.9889 20.6794 65.9625 20.7979 65.9402C20.9003 65.9073 21.0042 65.8772 21.1097 65.8501L44.67 59.7809C69.4515 24.2152 102.591 0 139 0C163.787 0 187.059 11.2233 207.21 29.6107L207.142 11.4978C207.13 8.49096 209.562 6.04427 212.572 6.03298C215.582 6.02169 218.032 8.45008 218.043 11.4569L218.122 32.2887L232.422 32.27C235.432 32.2661 237.868 34.7004 237.862 37.7073C237.856 40.7142 235.411 43.1549 232.4 43.1589L220.415 43.1746C228.45 52.4042 235.838 62.7923 242.451 74.0144C244.284 77.1245 246.057 80.2986 247.768 83.5298C250.759 89.1775 246.537 95.7922 240.14 95.7922C236.886 95.7922 233.912 93.9823 232.326 91.1443C209.83 50.8981 176.366 21.7778 139 21.7778C71.2639 21.7778 16.3529 117.469 16.3529 201.662C16.3529 285.855 71.2639 326.667 139 326.667C206.736 326.667 261.647 285.855 261.647 201.662C261.647 188.724 260.35 175.515 257.91 162.423C257.762 161.633 257.001 161.126 256.196 161.126H228.941C224.425 161.126 220.765 157.469 220.765 152.959C220.765 148.449 224.425 144.792 228.941 144.792H253.917H261.647H262.298C267.33 144.792 271.733 148.229 272.759 153.15C276.173 169.532 278 186.141 278 202.37ZM35.9946 73.2609L28.4438 75.206L30.4749 83.0716C32.2494 79.7374 34.0903 76.4646 35.9946 73.2609ZM98.1176 79.4589C98.1176 83.9692 94.4569 87.6255 89.9412 87.6255C85.4254 87.6255 81.7647 83.9692 81.7647 79.4589C81.7647 74.9485 85.4254 71.2922 89.9412 71.2922C94.4569 71.2922 98.1176 74.9485 98.1176 79.4589Z" fill="#360000"/>
</svg>
